<?xml version="1.0" encoding="UTF-8"?>
<svg width="122px" height="122px" viewBox="0 0 122 122" version="1.1" xmlns="http://www.w3.org/2000/svg" xmlns:xlink="http://www.w3.org/1999/xlink">
    <!-- Generator: Sketch 42 (36781) - http://www.bohemiancoding.com/sketch -->
    <title>Group 33</title>
    <desc>Created with Sketch.</desc>
    <defs>
        <filter x="-50%" y="-50%" width="200%" height="200%" filterUnits="objectBoundingBox" id="filter-1">
            <feOffset dx="0" dy="0" in="SourceAlpha" result="shadowOffsetOuter1"></feOffset>
            <feGaussianBlur stdDeviation="15" in="shadowOffsetOuter1" result="shadowBlurOuter1"></feGaussianBlur>
            <feColorMatrix values="0 0 0 0 0   0 0 0 0 0   0 0 0 0 0  0 0 0 0.133038949 0" type="matrix" in="shadowBlurOuter1" result="shadowMatrixOuter1"></feColorMatrix>
            <feMerge>
                <feMergeNode in="shadowMatrixOuter1"></feMergeNode>
                <feMergeNode in="SourceGraphic"></feMergeNode>
            </feMerge>
        </filter>
    </defs>
    <g id="Page-1" stroke="none" stroke-width="1" fill="none" fill-rule="evenodd">
        <g id="Challenge" transform="translate(-335.000000, -833.000000)">
            <g id="Group-3" filter="url(#filter-1)" transform="translate(120.000000, 152.000000)">
                <g id="Group-33" transform="translate(244.000000, 710.000000)">
                    <ellipse id="Oval" fill="#383838" cx="31.875" cy="31.8571429" rx="31.875" ry="31.8571429"></ellipse>
                    <path d="M24.7209768,32.5018616 C24.7209768,31.9831154 24.9159619,31.464241 25.3050489,31.0685968 L37.5611025,18.618431 C38.3407275,17.8264378 39.6047558,17.8264378 40.3840655,18.618431 C41.1633751,19.4101037 41.1633751,20.6939285 40.3840655,21.4859858 L29.5393988,32.5018616 L40.3833085,43.518186 C41.162555,44.3098587 41.162555,45.5938758 40.3833085,46.3854845 C39.6039358,47.1777981 38.3402859,47.1777981 37.560724,46.3854845 L25.3046074,33.9355109 C24.9155834,33.5396104 24.7209768,33.0208001 24.7209768,32.5018616" id="Imported-Layers" fill="#FFD300" transform="translate(32.844762, 32.502078) scale(-1, 1) translate(-32.844762, -32.502078) "></path>
                </g>
            </g>
        </g>
    </g>
</svg>